<?xml version="1.0" standalone="no"?><!DOCTYPE svg PUBLIC "-//W3C//DTD SVG 1.1//EN" "http://www.w3.org/Graphics/SVG/1.1/DTD/svg11.dtd"><svg t="1528190369324" class="icon" style="" viewBox="0 0 1024 1024" version="1.1" xmlns="http://www.w3.org/2000/svg" p-id="2240" xmlns:xlink="http://www.w3.org/1999/xlink" width="200" height="200"><defs><style type="text/css"></style></defs><path d="M581.632 581.632c14.336 0 25.6-11.264 25.6-25.6V532.48c0-14.336-11.264-25.6-25.6-25.6s-25.6 11.264-25.6 25.6v23.552c0 14.336 11.264 25.6 25.6 25.6z m151.552 0c14.336 0 25.6-11.264 25.6-25.6V532.48c0-14.336-11.264-25.6-25.6-25.6s-25.6 11.264-25.6 25.6v23.552c0 14.336 11.264 25.6 25.6 25.6z m130.048 0c14.336 0 25.6-11.264 25.6-25.6V532.48c0-14.336-11.264-25.6-25.6-25.6s-25.6 11.264-25.6 25.6v23.552c0 14.336 11.264 25.6 25.6 25.6z m-347.136 0c14.336 0 25.6-11.264 25.6-25.6V532.48c0-14.336-11.264-25.6-25.6-25.6s-25.6 11.264-25.6 25.6v23.552c0 14.336 11.264 25.6 25.6 25.6z m282.624 0c14.336 0 25.6-11.264 25.6-25.6V532.48c0-14.336-11.264-25.6-25.6-25.6s-25.6 11.264-25.6 25.6v23.552c-1.024 14.336 11.264 25.6 25.6 25.6zM153.6 728.064h715.776c14.336 0 25.6-11.264 25.6-25.6s-11.264-26.624-25.6-26.624H153.6c-14.336 0-25.6 11.264-25.6 25.6s11.264 26.624 25.6 26.624z m68.608-146.432c14.336 0 25.6-11.264 25.6-25.6V532.48c0-14.336-11.264-25.6-25.6-25.6s-25.6 11.264-25.6 25.6v23.552c0 14.336 11.264 25.6 25.6 25.6z m-64.512 0c14.336 0 25.6-11.264 25.6-25.6V532.48c0-14.336-11.264-25.6-25.6-25.6s-25.6 11.264-25.6 25.6v23.552c-1.024 14.336 11.264 25.6 25.6 25.6z m293.888 0c14.336 0 25.6-11.264 25.6-25.6V532.48c0-14.336-11.264-25.6-25.6-25.6s-25.6 11.264-25.6 25.6v23.552c-1.024 14.336 11.264 25.6 25.6 25.6z m-163.84 0c14.336 0 25.6-11.264 25.6-25.6V532.48c0-14.336-11.264-25.6-25.6-25.6s-25.6 11.264-25.6 25.6v23.552c0 14.336 11.264 25.6 25.6 25.6z" fill="" p-id="2241"></path><path d="M977.92 191.488c-16.384-16.384-37.888-25.6-61.44-25.6H106.496c-47.104 1.024-86.016 38.912-86.016 87.04v518.144c0 48.128 38.912 87.04 87.04 87.04h809.984c48.128 0 87.04-38.912 87.04-87.04V252.928c-1.024-22.528-10.24-45.056-26.624-61.44zM92.16 348.16v-95.232c0-8.192 6.144-14.336 14.336-14.336H916.48c8.192 0 14.336 6.144 14.336 14.336v95.232H92.16z m0 72.704h839.68v350.208c0 8.192-6.144 14.336-14.336 14.336H106.496c-8.192 0-14.336-6.144-14.336-14.336V420.864z" fill="" p-id="2242"></path></svg>