<?xml version="1.0" standalone="no"?><!DOCTYPE svg PUBLIC "-//W3C//DTD SVG 1.1//EN" "http://www.w3.org/Graphics/SVG/1.1/DTD/svg11.dtd"><svg t="1529414539846" class="icon" style="" viewBox="0 0 1024 1024" version="1.1" xmlns="http://www.w3.org/2000/svg" p-id="1962" xmlns:xlink="http://www.w3.org/1999/xlink" width="200" height="200"><defs><style type="text/css"></style></defs><path d="M516.096 20.48C241.664 20.48 18.432 243.712 18.432 518.144s223.232 497.664 497.664 497.664C790.528 1016.832 1013.76 793.6 1013.76 518.144S790.528 20.48 516.096 20.48z m0 929.792c-70.656 0-137.216-17.408-195.584-47.104 0 0-1.024-1.024-4.096-3.072-38.912-18.432-82.944-78.848-84.992-97.28-2.048-18.432-2.048-50.176 12.288-62.464 14.336-12.288 36.864-44.032 66.56-93.184 28.672-50.176-48.128-60.416-68.608-68.608-20.48-8.192-54.272-56.32-93.184-59.392-38.912-4.096-24.576 28.672-36.864 38.912-11.264 9.216-16.384 8.192-24.576-3.072-1.024-12.288-2.048-23.552-2.048-35.84 0-71.68 17.408-140.288 49.152-199.68 11.264-7.168 21.504-16.384 21.504-16.384h16.384c2.048 0 12.288 12.288 0 22.528-12.288 10.24-22.528 46.08 6.144 44.032 29.696-2.048 67.584-7.168 71.68-36.864 4.096-29.696-2.048-35.84 13.312-41.984 14.336-6.144 26.624 2.048 22.528 20.48-4.096 18.432 0 44.032 18.432 48.128 18.432 4.096 12.288 24.576 30.72 18.432 18.432-6.144 8.192-38.912 22.528-56.32 14.336-16.384 20.48-24.576 20.48-46.08 0-20.48 11.264-40.96 33.792-51.2 22.528-10.24 65.536-3.072 75.776 22.528 10.24 24.576 37.888 46.08 27.648 54.272-10.24 8.192-33.792 18.432-39.936 26.624-6.144 8.192-16.384 14.336-34.816 30.72-18.432 16.384-38.912 48.128-10.24 70.656s46.08 34.816 76.8 34.816 58.368 24.576 76.8 36.864c18.432 12.288 24.576 22.528 30.72 32.768 6.144 10.24 2.048 36.864 12.288 56.32 10.24 18.432 10.24 58.368 10.24 78.848s8.192 50.176 12.288 68.608c4.096 18.432-8.192 60.416 14.336 62.464 22.528 2.048 32.768-13.312 55.296-56.32s32.768-40.96 48.128-60.416c14.336-18.432 18.432-34.816 20.48-54.272 2.048-18.432 24.576-20.48 24.576-56.32 0-34.816 0-36.864-8.192-55.296-8.192-19.456-20.48-21.504-16.384-39.936 4.096-18.432-4.096-18.432 24.576-32.768 28.672-14.336 50.176-16.384 58.368-36.864 8.192-20.48 6.144-48.128 10.24-60.416 4.096-12.288 4.096-18.432 23.552-12.288 25.6 55.296 40.96 117.76 40.96 182.272 2.048 239.616-191.488 433.152-429.056 433.152z m0 0" p-id="1963"></path></svg>