<?xml version="1.0" standalone="no"?><!DOCTYPE svg PUBLIC "-//W3C//DTD SVG 1.1//EN" "http://www.w3.org/Graphics/SVG/1.1/DTD/svg11.dtd"><svg t="1528942241046" class="icon" style="" viewBox="0 0 1024 1024" version="1.1" xmlns="http://www.w3.org/2000/svg" p-id="1940" xmlns:xlink="http://www.w3.org/1999/xlink" width="200" height="200"><defs><style type="text/css"></style></defs><path d="M681.5 660c-0.7-0.7-1.5-1.4-2.2-2 33.6-38.7 53.9-89.1 53.9-144.4 0-121.6-98.6-220.2-220.2-220.2S292.8 392 292.8 513.6 391.4 733.8 513 733.8c45.2 0 87.2-13.6 122.2-37 1.2 1.9 2.6 3.7 4.2 5.3l117.9 118c5.8 5.8 13.4 8.7 21 8.7s15.2-2.9 21-8.7c11.6-11.6 11.6-30.5 0-42.1L681.5 660zM513 674.3c-88.6 0-160.6-72.1-160.6-160.6 0-88.7 72-160.7 160.6-160.7s160.6 72.1 160.6 160.6c0 88.6-72 160.7-160.6 160.7z" p-id="1941"></path><path d="M793.2 98.6H232.8C158.4 98.6 98 159 98 233.4v560.4c0 74.4 60.4 134.8 134.8 134.8h398.8v-61.7H248.9c-50.6 0-91.6-41-91.6-91.6V248.9c0-50.6 41-91.6 91.6-91.6h528.3c50.6 0 91.6 41 91.6 91.6v383.3H928V233.4c0-74.4-60.4-134.8-134.8-134.8z" p-id="1942"></path></svg>