<?xml version="1.0" standalone="no"?><!DOCTYPE svg PUBLIC "-//W3C//DTD SVG 1.1//EN" "http://www.w3.org/Graphics/SVG/1.1/DTD/svg11.dtd"><svg t="1529463127978" class="icon" style="" viewBox="0 0 1024 1024" version="1.1" xmlns="http://www.w3.org/2000/svg" p-id="1969" xmlns:xlink="http://www.w3.org/1999/xlink" width="200" height="200"><defs><style type="text/css"></style></defs><path d="M1002.088727 980.747636H855.947636V334.557091c0-11.52-9.355636-20.852364-20.875636-20.852364H709.806545c-11.531636 0-20.887273 9.332364-20.887272 20.852364v646.190545h-83.502546V563.851636c0-11.52-9.355636-20.852364-20.875636-20.852363H459.287273c-11.531636 0-20.875636 9.332364-20.875637 20.852363v416.896h-104.389818V709.76c0-11.52-9.344-20.852364-20.875636-20.852364H187.892364c-11.531636 0-20.875636 9.332364-20.875637 20.852364v270.987636H41.751273V21.876364a20.864 20.864 0 0 0-41.751273 0v958.871272a41.716364 41.716364 0 0 0 41.751273 41.681455H1002.088727c11.52 0 20.875636-9.332364 20.875637-20.852364 0-11.496727-9.355636-20.829091-20.875637-20.829091zM730.682182 355.397818h83.502545v625.349818h-83.502545V355.397818zM480.162909 584.692364h83.514182v396.055272h-83.514182V584.692364zM208.768 730.600727h83.514182v250.146909h-83.514182V730.600727z m0 0" p-id="1970"></path><path d="M250.530909 584.692364c46.114909 0 83.502545-37.329455 83.502546-83.386182a80.523636 80.523636 0 0 0-4.177455-22.923637l135.703273-83.374545a83.595636 83.595636 0 0 0 100.957091 5.934545 83.328 83.328 0 0 0 32.663272-95.58109L718.161455 167.784727a83.549091 83.549091 0 0 0 54.272 20.852364c46.126545 0 83.514182-37.329455 83.514181-83.374546 0-46.056727-37.387636-83.386182-83.514181-83.386181-46.114909 0-83.514182 37.329455-83.514182 83.386181-0.116364 9.204364 1.303273 18.362182 4.177454 27.101091L576.197818 272.011636a83.584 83.584 0 0 0-54.283636-20.829091c-46.114909 0-83.502545 37.317818-83.502546 83.374546-0.116364 9.192727 1.291636 18.350545 4.165819 27.089454l-133.597091 81.291637a83.607273 83.607273 0 0 0-101.248-13.905455 83.316364 83.316364 0 0 0-38.912 94.347637 83.479273 83.479273 0 0 0 81.710545 61.312zM772.433455 63.569455c23.051636 0 41.751273 18.664727 41.751272 41.69309s-18.688 41.693091-41.751272 41.693091-41.751273-18.664727-41.751273-41.693091 18.699636-41.693091 41.751273-41.69309zM521.914182 292.864a41.739636 41.739636 0 0 1 41.762909 41.693091c0 23.028364-18.699636 41.681455-41.762909 41.681454s-41.751273-18.664727-41.751273-41.681454a41.716364 41.716364 0 0 1 41.751273-41.693091zM250.530909 459.624727a41.774545 41.774545 0 0 1 35.490909 18.757818v2.08291h2.094546c2.827636 5.841455 4.258909 12.276364 4.165818 18.757818a41.716364 41.716364 0 0 1-41.751273 41.693091c-23.063273 0-41.762909-18.664727-41.762909-41.693091s18.688-41.693091 41.762909-41.693091v2.094545z m0 0" p-id="1971"></path></svg>