<?xml version="1.0" standalone="no"?><!DOCTYPE svg PUBLIC "-//W3C//DTD SVG 1.1//EN" "http://www.w3.org/Graphics/SVG/1.1/DTD/svg11.dtd"><svg t="1529029337504" class="icon" style="" viewBox="0 0 1024 1024" version="1.1" xmlns="http://www.w3.org/2000/svg" p-id="2007" xmlns:xlink="http://www.w3.org/1999/xlink" width="200" height="200"><defs><style type="text/css"></style></defs><path d="M947.483302 338.930269l0-0.024559c-9.911744-18.588357-27.070542-33.542954-48.832172-40.184211l-0.024559 0-0.050142 0L517.40408 182.803419l-0.121773-0.047072c-21.787212-6.591115-44.400233-3.78214-63.037708 6.179746-18.588357 9.936303-33.492812 27.095102-40.156582 48.859801l-0.024559 0 0 0.047072-33.081443 108.939131L158.742421 346.782098l-0.121773 0-0.047072 0c-26.077935 0-49.92404 10.639315-66.986647 27.747971-17.111726 17.086144-27.750017 40.910759-27.750017 66.964134l0 0.024559 0 0.047072 0 305.413921 0 0.146333 0 0.024559c0 26.100448 10.638291 49.89948 27.77253 66.986647 16.942881 16.989953 40.642652 27.629267 66.598814 27.725458l0.193405 0 0.170892 0 0.047072 0 456.621738 0 0.022513 0 0.049119 0c26.053376 0 49.874921-10.613732 66.936505-27.750017 16.989953-16.965393 27.606755-40.618093 27.725458-66.525136l0.024559-0.243547 0-0.193405 0-0.024559 0-54.094012 62.866816 19.1215 0.024559 0.024559 0.047072 0c21.789259 6.616698 44.375673 3.75758 62.941518-6.179746 18.515702-9.864672 33.371038-26.926256 40.059368-48.520063l0.074701-0.193405 0.047072-0.146333 0-0.047072 77.603449-255.152191 0-0.071631C960.304306 380.104017 957.445188 357.518626 947.483302 338.930269zM408.634818 337.208045l31.479969 9.574053-34.389228 0L408.634818 337.208045zM682.859389 747.127112c0 37.347606-30.271444 67.617004-67.617004 67.617004L158.620647 814.744115c-37.369096 0-67.664076-30.269397-67.664076-67.617004L90.956571 552.273239l591.902818 0L682.859389 747.127112zM682.859389 475.714586 90.956571 475.714586l0-34.148751c0-37.394678 30.293957-67.666122 67.664076-67.666122l456.621738 0c37.344536 0 67.617004 30.271444 67.617004 67.666122L682.859389 475.714586zM853.427136 650.208758c-9.500375 31.19242-42.484603 48.78817-73.652464 39.285748l-69.77311-21.205974 0-38.146808 87.830371 26.75741 18.515702-60.83146-106.346073-32.329313 0-66.018599 15.027252 4.581342 0.484024-1.600451c0.217964-0.799202 0.268106-1.429559 0.049119-1.840928-0.193405-0.436952-0.533143-0.701988-1.042749-0.848321-0.339738-0.121773-0.801249-0.097214-1.260713 0.121773l-7.271614-2.228761c4.14439-1.793856 6.980995-3.054569 8.457626-3.806699 1.866511-0.920976 3.127224-1.720178 3.710508-2.397606 0.652869-0.680499 1.11438-1.478677 1.379417-2.375094 0.533143-1.793856 0.315178-3.538593-0.630357-5.211698-0.945535-1.647523-2.422166-2.812045-4.5312-3.466961-1.332345-0.38681-2.690272-0.484024-4.022617-0.240477-1.307785 0.240477-2.399653 0.75213-3.296069 1.526773-0.895393 0.799202-1.454118 1.52575-1.647523 2.156106-0.12075 0.436952-0.096191 0.848321 0.144286 1.260713 0.243547 0.436952 0.583285 0.727571 1.020236 0.848321 0.412392 0.121773 0.750083 0.121773 1.064238 0.047072 0.339738-0.144286 0.654916-0.412392 0.898463-0.799202 0.484024-0.654916 0.968048-1.089821 1.50119-1.357927 0.992607-0.436952 2.084475-0.484024 3.270487-0.144286 1.163499 0.36225 2.012843 0.943488 2.545986 1.791809 0.508583 0.848321 0.630357 1.697665 0.412392 2.471284-0.193405 0.654916-0.727571 1.236154-1.575892 1.769296-1.647523 1.042749-6.251378 3.127224-13.693884 6.204305l-0.992607 3.198855 0-55.813167 0-0.047072 0-0.050142c0-4.459568-0.727571-8.725732-1.332345-13.038968l194.246029 59.062164L853.427136 650.208758zM931.029562 395.058614l-8.701173 28.52466-494.256894-150.284795 8.67559-28.571732c9.474792-31.16786 42.434461-48.78817 73.649394-39.285748l381.297193 115.940592C922.909627 330.881966 940.505377 363.843682 931.029562 395.058614zM744.876861 508.312004l-15.123442-4.581342 1.091868-3.514033c7.486508-3.077082 12.018731-5.161556 13.690814-6.204305 0.848321-0.558725 1.382487-1.11438 1.575892-1.769296 0.243547-0.776689 0.097214-1.622964-0.38681-2.471284-0.533143-0.823761-1.382487-1.407046-2.545986-1.793856-1.211595-0.339738-2.301416-0.290619-3.27151 0.146333-0.533143 0.265036-1.017166 0.701988-1.50426 1.357927-0.265036 0.38681-0.581238 0.652869-0.920976 0.799202-0.290619 0.097214-0.677429 0.097214-1.042749-0.049119-0.458441-0.118704-0.799202-0.412392-1.042749-0.823761-0.240477-0.433882-0.26606-0.846274-0.144286-1.283226 0.193405-0.630357 0.727571-1.357927 1.622964-2.156106 0.898463-0.776689 2.012843-1.285273 3.345188-1.528819 1.307785-0.215918 2.64013-0.144286 3.998057 0.243547 2.084475 0.654916 3.610224 1.793856 4.581342 3.489474 0.920976 1.647523 1.13894 3.39533 0.605797 5.187139-0.315178 0.920976-0.75213 1.697665-1.382487 2.399653-0.605797 0.654916-1.866511 1.454118-3.707438 2.375094-1.50119 0.776689-4.288676 2.012843-8.482185 3.804652l7.296173 2.230808c0.459464-0.217964 0.895393-0.268106 1.236154-0.121773 0.508583 0.144286 0.871857 0.436952 1.042749 0.848321 0.193405 0.433882 0.193405 1.042749-0.050142 1.840928L744.876861 508.312004zM778.829138 516.0175l-1.283226-0.36225c-0.823761-0.243547-1.429559-0.243547-1.866511-0.049119-0.436952 0.168846-0.701988 0.508583-0.848321 0.992607-0.144286 0.508583-0.097214 0.945535 0.146333 1.382487 0.2415 0.412392 0.74906 0.701988 1.551332 0.970094l4.435009 1.332345c0.799202 0.240477 1.429559 0.290619 1.840928 0.071631 0.461511-0.217964 0.727571-0.533143 0.848321-1.017166 0.144286-0.484024 0.121773-0.945535-0.12075-1.357927-0.218988-0.412392-0.703011-0.727571-1.404999-0.945535l0.412392-1.332345c0.701988 0.217964 1.257643 0.217964 1.694595 0 0.412392-0.193405 0.701988-0.558725 0.873903-1.042749 0.144286-0.459464 0.097214-0.895393-0.170892-1.332345-0.215918-0.412392-0.701988-0.727571-1.379417-0.920976l3.925403-12.967336-4.387937-1.332345-12.020778 11.125385-0.846274 2.737344 8.990768 2.739391L778.829138 516.0175zM775.436878 509.910409l7.271614-6.641257-2.496867 8.119935L775.436878 509.910409zM798.655695 522.075473l-1.260713-0.38681c-0.799202-0.240477-1.429559-0.240477-1.840928-0.047072-0.436952 0.168846-0.701988 0.533143-0.873903 1.017166-0.144286 0.459464-0.097214 0.920976 0.146333 1.332345 0.240477 0.436952 0.75213 0.75213 1.551332 1.017166l4.459568 1.307785c0.799202 0.243547 1.404999 0.268106 1.840928 0.097214 0.412392-0.240477 0.727571-0.531096 0.870834-1.039679 0.146333-0.511653 0.097214-0.945535-0.144286-1.382487-0.268106-0.38681-0.727571-0.701988-1.407046-0.920976l0.38988-1.309832c0.677429 0.217964 1.258667 0.217964 1.670036-0.022513 0.461511-0.193405 0.727571-0.558725 0.873903-1.042749 0.168846-0.461511 0.121773-0.898463-0.146333-1.332345-0.215918-0.38988-0.701988-0.727571-1.379417-0.920976l3.926426-12.967336-4.363378-1.307785-12.043291 11.076266-0.848321 2.761903 8.991792 2.737344L798.655695 522.075473zM795.263435 515.945869l7.318686-6.641257-2.471284 8.142447L795.263435 515.945869zM818.551838 528.110933l-1.283226-0.38681c-0.801249-0.268106-1.454118-0.268106-1.866511-0.050142-0.436952 0.193405-0.727571 0.533143-0.898463 1.017166-0.144286 0.461511-0.097214 0.923022 0.170892 1.357927 0.240477 0.412392 0.75213 0.727571 1.551332 0.995677l4.435009 1.332345c0.774643 0.217964 1.429559 0.265036 1.866511 0.047072 0.436952-0.193405 0.701988-0.508583 0.870834-1.017166 0.146333-0.508583 0.121773-0.945535-0.168846-1.357927-0.243547-0.38681-0.677429-0.727571-1.382487-0.945535l0.38988-1.307785c0.701988 0.217964 1.260713 0.217964 1.694595-0.024559 0.461511-0.193405 0.727571-0.555655 0.848321-1.017166 0.146333-0.484024 0.121773-0.920976-0.097214-1.332345-0.26606-0.412392-0.701988-0.75213-1.454118-0.945535l3.950985-12.964266-4.362354-1.310855-12.021801 11.076266-0.870834 2.787486 9.038864 2.714831L818.551838 528.110933zM815.133995 522.003841l7.271614-6.641257-2.446725 8.119935L815.133995 522.003841zM838.378395 534.146393l-1.286296-0.38988c-0.799202-0.26606-1.404999-0.26606-1.840928-0.047072-0.436952 0.193405-0.727571 0.533143-0.873903 1.017166-0.143263 0.461511-0.097214 0.945535 0.121773 1.357927 0.290619 0.412392 0.75213 0.727571 1.600451 0.970094l4.435009 1.354857c0.799202 0.217964 1.404999 0.243547 1.840928 0.074701 0.436952-0.217964 0.701988-0.558725 0.848321-1.042749 0.168846-0.508583 0.121773-0.945535-0.121773-1.357927-0.243547-0.38681-0.701988-0.75213-1.404999-0.945535l0.412392-1.283226c0.677429 0.193405 1.210571 0.193405 1.670036-0.024559 0.436952-0.243547 0.727571-0.583285 0.873903-1.042749 0.121773-0.484024 0.121773-0.945535-0.12075-1.332345-0.26606-0.412392-0.703011-0.75213-1.404999-0.945535l3.926426-12.967336-4.387937-1.307785-12.043291 11.076266-0.848321 2.761903 8.990768 2.761903L838.378395 534.146393zM835.007625 528.039301l7.247054-6.665817-2.471284 8.142447L835.007625 528.039301zM461.393415 700.132798 624.159476 700.132798l0 72.828702L461.393415 772.9615 461.393415 700.132798zM152.684448 628.665093l-18.372439-12.45773 19.098987-12.505825L152.684448 628.665093zM179.608657 608.379071c-0.387833-0.38681-0.581238-0.895393-0.581238-1.50426 0-0.484024 0.146333-0.920976 0.412392-1.210571 0.265036-0.315178 0.823761-0.581238 1.697665-0.823761l8.529257-2.181689 0 21.667485 3.998057 0c0.970094 0 1.650593 0.217964 2.084475 0.555655 0.412392 0.38681 0.583285 0.873903 0.583285 1.454118 0 0.583285-0.170892 1.042749-0.583285 1.429559-0.433882 0.36532-1.11438 0.558725-2.084475 0.558725l-11.946077 0c-0.971118 0-1.648546-0.193405-2.035356-0.558725-0.436952-0.38681-0.630357-0.870834-0.630357-1.429559 0-0.605797 0.193405-1.067308 0.630357-1.454118 0.38681-0.337691 1.064238-0.555655 2.035356-0.555655l4.022617 0 0-16.505929-3.561106 0.920976c-0.583285 0.146333-0.994654 0.243547-1.285273 0.243547C180.409906 608.984868 179.948395 608.791463 179.608657 608.379071zM211.67191 620.254539c0.919952 0 1.793856-0.146333 2.593058-0.558725 0.823761-0.337691 1.722224-0.943488 2.764973-1.791809-0.412392 1.962701-1.431605 3.611248-3.151783 4.990664-1.673106 1.335415-3.538593 2.037403-5.526877 2.037403-0.581238 0-1.089821-0.146333-1.573845-0.38681-0.412392-0.217964-0.75213-0.315178-1.067308-0.315178-0.558725 0-1.042749 0.215918-1.382487 0.605797-0.36225 0.337691-0.581238 0.846274-0.581238 1.404999 0 0.679475 0.290619 1.285273 0.873903 1.697665 0.871857 0.630357 2.131547 0.968048 3.729951 0.968048 2.885723 0 5.551436-0.920976 7.973602-2.834558 3.101641-2.424212 4.703115-5.695722 4.703115-9.768481 0-2.375094-0.340761-4.652973-1.042749-6.834662-0.680499-2.228761-1.744737-3.926426-3.198855-5.065366-1.454118-1.161453-3.151783-1.744737-5.114484-1.744737-2.712785 0-4.821819 1.091868-6.348592 3.320629-1.067308 1.600451-1.647523 3.39226-1.647523 5.380544 0 2.496867 0.799202 4.652973 2.422166 6.326079C207.698412 619.405195 209.540364 620.254539 211.67191 620.254539zM208.862935 607.895047c0.774643-0.848321 1.720178-1.310855 2.834558-1.310855 1.11438 0 2.059915 0.412392 2.858094 1.189082 0.848321 0.74906 1.431605 2.059915 1.89107 3.876284-1.454118 3.077082-3.101641 4.628414-4.89652 4.628414-0.992607 0-1.888-0.433882-2.687202-1.354857-0.801249-0.923022-1.189082-2.134617-1.189082-3.588735C207.673853 609.880261 208.060663 608.766904 208.862935 607.895047zM226.601948 621.611443c0 1.332345 0.315178 2.543939 0.970094 3.682879 0.62831 1.091868 1.647523 1.988284 3.027963 2.6432 1.357927 0.630357 2.883677 0.968048 4.581342 0.968048s3.248997-0.337691 4.677533-0.968048c1.357927-0.654916 2.399653-1.50426 3.052522-2.6432 0.654916-1.11438 0.995677-2.350534 0.995677-3.682879 0-1.210571-0.292666-2.25332-0.801249-3.296069-0.484024-0.994654-1.236154-1.866511-2.27788-2.6432 0.898463-0.823761 1.575892-1.694595 2.012843-2.665713 0.459464-0.895393 0.677429-1.89107 0.677429-2.933819 0-2.035356-0.773619-3.780093-2.300392-5.234211-1.600451-1.454118-3.564175-2.181689-5.986341-2.181689-2.399653 0-4.412496 0.727571-5.962805 2.181689-1.526773 1.454118-2.303462 3.198855-2.303462 5.234211 0 1.020236 0.218988 2.037403 0.679475 2.933819 0.436952 0.920976 1.11438 1.816369 2.009773 2.665713-0.992607 0.776689-1.791809 1.647523-2.300392 2.6432C226.845495 619.358123 226.601948 620.400872 226.601948 621.611443zM232.078683 607.626941c0.774643-0.654916 1.816369-1.042749 3.101641-1.042749 1.307785 0 2.350534 0.38681 3.127224 1.042749 0.774643 0.701988 1.13894 1.551332 1.13894 2.521426 0 0.992607-0.36532 1.816369-1.13894 2.51938-0.776689 0.705058-1.818415 1.042749-3.127224 1.042749-1.285273 0-2.328022-0.337691-3.101641-1.042749-0.776689-0.701988-1.163499-1.526773-1.163499-2.51938C230.915184 609.178273 231.303017 608.329952 232.078683 607.626941zM231.909837 618.969267c0.896416-0.870834 2.009773-1.258667 3.320629-1.258667 1.354857 0 2.446725 0.38681 3.343141 1.258667 0.895393 0.848321 1.356904 1.819438 1.356904 2.836605 0 0.873903-0.38681 1.575892-1.163499 2.228761-0.74906 0.607844-1.938142 0.898463-3.536546 0.898463-1.551332 0-2.739391-0.290619-3.538593-0.898463-0.727571-0.652869-1.13894-1.332345-1.13894-2.178619C230.552933 620.787682 231.011374 619.817588 231.909837 618.969267zM260.82233 624.326275l-1.52575 0c-0.971118 0-1.648546 0.217964-2.037403 0.555655-0.433882 0.38681-0.62831 0.848321-0.62831 1.454118 0 0.558725 0.193405 1.042749 0.62831 1.429559 0.38988 0.36532 1.067308 0.558725 2.037403 0.558725l5.305843 0c0.945535 0 1.626034-0.193405 2.037403-0.558725 0.412392-0.38681 0.605797-0.846274 0.605797-1.429559 0-0.581238-0.193405-1.042749-0.605797-1.454118-0.38681-0.337691-0.995677-0.555655-1.840928-0.555655l0-1.551332c0.823761 0 1.429559-0.196475 1.840928-0.583285 0.412392-0.36225 0.605797-0.823761 0.605797-1.404999 0-0.583285-0.193405-1.091868-0.605797-1.429559-0.38681-0.38988-0.995677-0.558725-1.840928-0.558725l0-15.510252-5.236258 0-9.524934 16.166191 0 3.320629 10.785647 0L260.823354 624.326275zM255.079536 618.800421l5.742794-9.765411 0 9.765411L255.079536 618.800421zM310.406632 627.841332c1.091868 0.677429 2.449795 1.064238 4.047176 1.064238 2.740414 0 4.89652-1.186012 6.39771-3.561106 1.479701-2.350534 2.230808-4.824889 2.230808-7.393387l0-4.362354c0-2.106987-0.484024-4.119831-1.50426-6.033413-0.992607-1.866511-2.035356-3.151783-3.174296-3.853771-1.11438-0.701988-2.422166-1.042749-4.047176-1.042749-2.737344 0-4.846378 1.189082-6.326079 3.538593-1.50119 2.375094-2.25332 4.821819-2.25332 7.390317l0 4.362354c0 2.109034 0.508583 4.097318 1.454118 6.010901C308.228013 625.853048 309.267693 627.160833 310.406632 627.841332zM309.753763 613.588723c0-2.156106 0.533143-3.998057 1.720178-5.499248 0.75213-0.945535 1.744737-1.50426 2.933819-1.50426 1.236154 0 2.204202 0.484024 2.859118 1.357927 1.236154 1.647523 1.840928 3.489474 1.840928 5.64558l0 4.362354c0 2.206248-0.580215 4.022617-1.744737 5.476735-0.75213 1.017166-1.720178 1.50426-2.908236 1.50426-1.236154 0-2.228761-0.436952-2.908236-1.332345-1.186012-1.600451-1.791809-3.491521-1.791809-5.64865L309.754786 613.588723zM330.135976 608.379071c-0.36532-0.38681-0.557702-0.895393-0.557702-1.50426 0-0.484024 0.146333-0.920976 0.38681-1.210571 0.268106-0.315178 0.848321-0.581238 1.697665-0.823761l8.579399-2.181689 0 21.667485 3.975545 0c0.943488 0 1.647523 0.217964 2.059915 0.555655 0.38681 0.38681 0.581238 0.873903 0.581238 1.454118 0 0.583285-0.193405 1.042749-0.581238 1.429559-0.412392 0.36532-1.116427 0.558725-2.059915 0.558725l-11.949146 0c-0.970094 0-1.647523-0.193405-2.084475-0.558725-0.38681-0.38681-0.580215-0.870834-0.580215-1.429559 0-0.605797 0.193405-1.067308 0.580215-1.454118 0.436952-0.337691 1.11438-0.555655 2.084475-0.555655l3.975545 0 0-16.505929-3.538593 0.920976c-0.583285 0.146333-0.995677 0.243547-1.260713 0.243547C330.910619 608.984868 330.473667 608.791463 330.135976 608.379071zM370.292558 628.324332l-18.104333 0 0-4.194532c7.1744-5.91164 11.488659-9.718339 12.967336-11.388375 0.75213-0.873903 1.11438-1.673106 1.11438-2.471284 0-0.945535-0.436952-1.819438-1.260713-2.545986-0.846274-0.727571-1.962701-1.13894-3.367701-1.13894-1.404999 0-2.618641 0.461511-3.564175 1.260713-0.484024 0.436952-0.870834 1.089821-1.161453 1.988284-0.170892 0.484024-0.436952 0.895393-0.727571 1.13894-0.339738 0.217964-0.726547 0.36225-1.189082 0.36225-0.555655 0-0.992607-0.217964-1.404999-0.605797-0.38681-0.412392-0.605797-0.848321-0.605797-1.357927 0-0.799202 0.36225-1.744737 1.064238-2.908236 0.727571-1.11438 1.793856-2.059915 3.176342-2.761903 1.357927-0.701988 2.859118-1.042749 4.435009-1.042749 2.495844 0 4.578272 0.727571 6.154163 2.25332 1.600451 1.528819 2.399653 3.369747 2.399653 5.526877 0 1.089821-0.217964 2.109034-0.677429 3.03001-0.436952 0.943488-1.528819 2.25332-3.273557 3.876284-1.379417 1.307785-4.047176 3.660366-8.020674 6.980995l8.701173 0c0.459464-0.36532 0.896416-0.558725 1.357927-0.558725 0.605797 0 1.089821 0.217964 1.452071 0.630357 0.339738 0.36225 0.533143 1.067308 0.533143 2.035356L370.290511 628.324332zM377.929492 627.232464c-0.995677-0.652869-1.528819-1.404999-1.528819-2.228761 0-0.533143 0.193405-0.992607 0.605797-1.404999 0.36532-0.38988 0.873903-0.558725 1.407046-0.558725 0.459464 0 0.945535 0.193405 1.454118 0.654916 0.533143 0.38681 1.089821 0.701988 1.647523 0.870834 0.849344 0.268106 1.89107 0.36532 3.198855 0.36532 2.375094 0 4.022617-0.38681 4.89652-1.13894 0.870834-0.776689 1.332345-1.938142 1.332345-3.538593 0-1.551332-0.461511-2.786463-1.310855-3.682879-0.823761-0.873903-1.889023-1.310855-3.223415-1.310855-1.429559 0-3.052522 0.461511-4.894474 1.382487-0.412392 0.217964-0.776689 0.315178-1.067308 0.315178-0.580215 0-1.067308-0.193405-1.429559-0.630357-0.38681-0.38681-0.580215-0.945535-0.580215-1.622964l0-11.416004 12.140505 0c0.970094 0 1.622964 0.168846 2.059915 0.558725 0.364297 0.337691 0.604774 0.846274 0.604774 1.429559 0 0.555655-0.240477 1.067308-0.604774 1.404999-0.436952 0.38681-1.089821 0.558725-2.059915 0.558725l-8.16803 0 0 4.725628c1.454118-0.436952 2.786463-0.701988 3.998057-0.701988 2.424212 0 4.484128 0.848321 6.084579 2.496867 1.622964 1.647523 2.397606 3.853771 2.397606 6.494924 0 2.665713-0.774643 4.774747-2.397606 6.326079-1.647523 1.551332-4.14439 2.324952-7.53665 2.324952C381.999181 628.90557 379.673206 628.324332 377.929492 627.232464zM433.305707 626.895797c1.332345 0.992607 3.052522 1.454118 5.114484 1.454118 2.51938 0 4.457522-0.727571 5.91164-2.134617 1.454118-1.429559 2.206248-3.296069 2.206248-5.621021 0-2.496867-0.799202-4.5312-2.350534-6.181793-1.551332-1.670036-3.39226-2.493797-5.455245-2.493797-0.968048 0-1.913583 0.193405-2.786463 0.555655-0.870834 0.38681-1.76725 0.945535-2.737344 1.744737 0.339738-1.551332 0.824785-2.834558 1.50119-3.900843 0.995677-1.429559 2.206248-2.543939 3.538593-3.248997 1.357927-0.701988 2.6432-1.089821 3.926426-1.089821 0.315178 0 0.654916 0.121773 0.995677 0.26606 0.555655 0.315178 1.017166 0.48607 1.307785 0.48607 0.558725 0 0.992607-0.193405 1.404999-0.583285 0.38988-0.412392 0.605797-0.895393 0.605797-1.454118 0-0.701988-0.313132-1.236154-0.870834-1.647523-0.873903-0.630357-2.156106-0.943488-3.78214-0.943488-2.035356 0-3.926426 0.555655-5.767354 1.598404-1.866511 1.091868-3.417843 2.6432-4.797259 4.581342-1.332345 1.988284-2.037403 4.435009-2.037403 7.440459 0 2.446725 0.339738 4.677533 1.042749 6.712889C430.931636 624.446002 431.973362 625.924679 433.305707 626.895797zM436.068633 617.055684c0.919952-0.776689 1.744737-1.163499 2.593058-1.163499 0.994654 0 1.89107 0.436952 2.690272 1.332345 0.799202 0.873903 1.189082 2.037403 1.189082 3.345188 0 1.163499-0.339738 2.109034-1.042749 2.786463-0.701988 0.677429-1.697665 1.042749-3.00545 1.042749-1.285273 0-2.328022-0.290619-3.00545-0.873903-0.701988-0.555655-1.285273-1.622964-1.673106-3.149736C434.420087 618.946754 435.172217 617.854886 436.068633 617.055684zM457.08018 626.895797c1.307785 0.992607 3.054569 1.454118 5.136997 1.454118 2.471284 0 4.459568-0.727571 5.889127-2.134617 1.454118-1.429559 2.206248-3.296069 2.206248-5.621021 0-2.496867-0.799202-4.5312-2.350534-6.181793-1.575892-1.670036-3.39226-2.493797-5.476735-2.493797-0.970094 0-1.89107 0.193405-2.739391 0.555655-0.870834 0.38681-1.791809 0.945535-2.737344 1.744737 0.290619-1.551332 0.799202-2.834558 1.476631-3.900843 0.995677-1.429559 2.206248-2.543939 3.538593-3.248997 1.357927-0.701988 2.6432-1.089821 3.900843-1.089821 0.339738 0 0.705058 0.121773 1.020236 0.26606 0.581238 0.315178 1.017166 0.48607 1.332345 0.48607 0.555655 0 1.017166-0.193405 1.379417-0.583285 0.412392-0.412392 0.608867-0.895393 0.608867-1.454118 0-0.701988-0.315178-1.236154-0.873903-1.647523-0.895393-0.630357-2.156106-0.943488-3.780093-0.943488-2.037403 0-3.950985 0.555655-5.7694 1.598404-1.841951 1.091868-3.440355 2.6432-4.797259 4.581342-1.332345 1.988284-2.037403 4.435009-2.037403 7.440459 0 2.446725 0.339738 4.677533 1.042749 6.712889C454.706109 624.446002 455.723276 625.924679 457.08018 626.895797zM459.843106 617.055684c0.898463-0.776689 1.744737-1.163499 2.593058-1.163499 0.970094 0 1.89107 0.436952 2.690272 1.332345 0.799202 0.873903 1.189082 2.037403 1.189082 3.345188 0 1.163499-0.339738 2.109034-1.042749 2.786463-0.701988 0.677429-1.697665 1.042749-2.980891 1.042749-1.309832 0-2.303462-0.290619-3.03001-0.873903-0.727571-0.555655-1.260713-1.622964-1.673106-3.149736C458.170001 618.946754 458.94669 617.854886 459.843106 617.055684zM492.804822 627.76663l-18.057261 0 0-4.191462c7.125281-5.889127 11.440563-9.69378 12.967336-11.341303 0.75213-0.898463 1.089821-1.697665 1.089821-2.496867 0-0.945535-0.412392-1.793856-1.260713-2.545986-0.823761-0.74906-1.985214-1.11438-3.367701-1.11438-1.429559 0-2.617617 0.38681-3.538593 1.236154-0.508583 0.412392-0.895393 1.067308-1.210571 1.938142-0.146333 0.533143-0.412392 0.920976-0.727571 1.189082-0.315178 0.217964-0.701988 0.339738-1.163499 0.339738-0.533143 0-0.992607-0.193405-1.379417-0.607844-0.412392-0.38681-0.607844-0.823761-0.607844-1.332345 0-0.774643 0.339738-1.744737 1.067308-2.90619 0.727571-1.163499 1.769296-2.084475 3.127224-2.789533 1.382487-0.701988 2.883677-1.039679 4.484128-1.039679 2.494821 0 4.554736 0.74906 6.154163 2.27788 1.575892 1.50119 2.424212 3.343141 2.424212 5.499248 0 1.091868-0.268106 2.084475-0.705058 3.03001-0.459464 0.945535-1.573845 2.25332-3.295046 3.900843-1.404999 1.285273-4.048199 3.635807-7.996115 6.980995l8.698103 0c0.436952-0.38681 0.898463-0.583285 1.335415-0.583285 0.605797 0 1.089821 0.217964 1.452071 0.630357 0.315178 0.38988 0.511653 1.042749 0.511653 2.037403L492.806869 627.76663zM516.579295 627.76663l-18.057261 0 0-4.191462c7.125281-5.889127 11.440563-9.69378 12.941753-11.341303 0.75213-0.898463 1.11438-1.697665 1.11438-2.496867 0-0.945535-0.387833-1.793856-1.236154-2.545986-0.870834-0.74906-1.988284-1.11438-3.39226-1.11438-1.429559 0-2.593058 0.38681-3.538593 1.236154-0.508583 0.412392-0.895393 1.067308-1.186012 1.938142-0.170892 0.533143-0.436952 0.920976-0.75213 1.189082-0.315178 0.217964-0.701988 0.339738-1.163499 0.339738-0.533143 0-1.017166-0.193405-1.404999-0.607844-0.38681-0.38681-0.581238-0.823761-0.581238-1.332345 0-0.774643 0.36225-1.744737 1.039679-2.90619 0.75213-1.163499 1.769296-2.084475 3.151783-2.789533 1.357927-0.701988 2.883677-1.039679 4.484128-1.039679 2.494821 0 4.5312 0.74906 6.154163 2.27788 1.601474 1.50119 2.424212 3.343141 2.424212 5.499248 0 1.091868-0.243547 2.084475-0.705058 3.03001-0.484024 0.945535-1.573845 2.25332-3.295046 3.900843-1.38044 1.285273-4.02364 3.635807-8.021697 6.980995l8.701173 0c0.484024-0.38681 0.920976-0.583285 1.38044-0.583285 0.583285 0 1.067308 0.217964 1.381463 0.630357 0.412392 0.38988 0.558725 1.042749 0.558725 2.037403L516.577249 627.76663zM556.349067 624.882953l-1.50119 0c-0.970094 0-1.626034 0.193405-2.084475 0.583285-0.38988 0.337691-0.583285 0.823761-0.583285 1.404999s0.193405 1.067308 0.583285 1.454118c0.459464 0.339738 1.11438 0.558725 2.084475 0.558725l5.305843 0c0.945535 0 1.647523-0.217964 2.037403-0.558725 0.412392-0.38681 0.605797-0.848321 0.605797-1.429559 0-0.558725-0.193405-1.067308-0.605797-1.429559-0.38988-0.38988-1.042749-0.583285-1.843998-0.583285l0-1.551332c0.801249 0 1.454118-0.193405 1.843998-0.581238 0.412392-0.36532 0.605797-0.848321 0.605797-1.429559 0-0.583285-0.193405-1.067308-0.605797-1.429559-0.38988-0.36532-1.042749-0.533143-1.843998-0.533143l0-15.510252-5.234211 0-9.524934 16.140609 0 3.343141 10.761088 0L556.349067 624.882953zM550.628786 619.358123l5.720282-9.742898 0 9.742898L550.628786 619.358123zM580.149123 624.882953l-1.551332 0c-0.945535 0-1.622964 0.193405-2.035356 0.583285-0.412392 0.337691-0.607844 0.823761-0.607844 1.404999s0.196475 1.067308 0.607844 1.454118c0.412392 0.339738 1.089821 0.558725 2.035356 0.558725l5.331425 0c0.945535 0 1.647523-0.217964 2.037403-0.558725 0.412392-0.38681 0.605797-0.848321 0.605797-1.429559 0-0.558725-0.193405-1.067308-0.605797-1.429559-0.38988-0.38988-1.042749-0.583285-1.843998-0.583285l0-1.551332c0.801249 0 1.454118-0.193405 1.843998-0.581238 0.412392-0.36532 0.605797-0.848321 0.605797-1.429559 0-0.583285-0.193405-1.067308-0.605797-1.429559-0.38988-0.36532-1.042749-0.533143-1.843998-0.533143l0-15.510252-5.234211 0-9.524934 16.140609 0 3.343141 10.785647 0L580.149123 624.882953zM574.403259 619.358123l5.744841-9.742898 0 9.742898L574.403259 619.358123zM603.923596 624.882953l-1.551332 0c-0.945535 0-1.647523 0.193405-2.035356 0.583285-0.412392 0.337691-0.605797 0.823761-0.605797 1.404999s0.193405 1.067308 0.605797 1.454118c0.38681 0.339738 1.089821 0.558725 2.035356 0.558725l5.331425 0c0.919952 0 1.62501-0.217964 2.037403-0.558725 0.412392-0.38681 0.605797-0.848321 0.605797-1.429559 0-0.558725-0.193405-1.067308-0.583285-1.429559-0.412392-0.38988-0.992607-0.583285-1.841951-0.583285l0-1.551332c0.776689 0 1.407046-0.193405 1.819438-0.581238 0.412392-0.36532 0.605797-0.848321 0.605797-1.429559 0-0.583285-0.193405-1.067308-0.583285-1.429559-0.412392-0.36532-0.992607-0.533143-1.841951-0.533143l0-15.510252-5.234211 0-9.524934 16.140609 0 3.343141 10.761088 0L603.923596 624.882953zM598.180801 619.358123l5.742794-9.742898 0 9.742898L598.180801 619.358123zM627.698069 624.882953l-1.551332 0c-0.970094 0-1.622964 0.193405-2.035356 0.583285-0.38988 0.337691-0.605797 0.823761-0.605797 1.404999s0.215918 1.067308 0.605797 1.454118c0.412392 0.339738 1.064238 0.558725 2.035356 0.558725l5.355985 0c0.919952 0 1.575892-0.217964 2.037403-0.558725 0.38681-0.38681 0.581238-0.848321 0.581238-1.429559 0-0.558725-0.193405-1.067308-0.581238-1.429559-0.412392-0.38988-1.019213-0.583285-1.843998-0.583285l0-1.551332c0.801249 0 1.382487-0.193405 1.843998-0.581238 0.38681-0.36532 0.581238-0.848321 0.581238-1.429559 0-0.583285-0.193405-1.067308-0.581238-1.429559-0.412392-0.36532-1.019213-0.533143-1.843998-0.533143l0-15.510252-5.258771 0-9.500375 16.140609 0 3.343141 10.761088 0L627.698069 624.882953zM621.977787 619.358123l5.720282-9.742898 0 9.742898L621.977787 619.358123z" p-id="2008"></path></svg>