<?xml version="1.0" encoding="utf-8"?>
<!-- Svg Vector Icons : http://www.sfont.cn -->
<!DOCTYPE svg PUBLIC "-//W3C//DTD SVG 1.1//EN" "http://www.w3.org/Graphics/SVG/1.1/DTD/svg11.dtd">
<svg version="1.1" xmlns="http://www.w3.org/2000/svg" xmlns:xlink="http://www.w3.org/1999/xlink" x="0px" y="0px" viewBox="0 0 1000 1000" enable-background="new 0 0 1000 1000" xml:space="preserve">
<metadata> Svg Vector Icons : http://www.sfont.cn </metadata>
<g><path d="M892,990H108V140.7h130.7V206h-65.3v718.7h653.3V206h-65.3v-65.3H892V990z"/><path d="M696,271.3H304v-196h119.8C437.3,42.7,473.6,10,516.2,10c42.6,0,78.9,32.7,92.4,65.3H696V271.3z M369.3,206h261.3v-65.3h-98v-33.1c0-18-14.6-32.7-32.7-32.7s-32.7,14.6-32.7,32.7v33.1h-98V206z"/><path d="M304,467.3h392v65.3H304V467.3z"/><path d="M304,598h392v65.3H304V598z"/><path d="M304,728.7h392V794H304V728.7z"/><path d="M304,336.7h163.3V402H304V336.7z"/></g>
</svg>