<?xml version="1.0" encoding="utf-8"?>
<!-- Svg Vector Icons : http://www.sfont.cn -->
<!DOCTYPE svg PUBLIC "-//W3C//DTD SVG 1.1//EN" "http://www.w3.org/Graphics/SVG/1.1/DTD/svg11.dtd">
<svg version="1.1" xmlns="http://www.w3.org/2000/svg" xmlns:xlink="http://www.w3.org/1999/xlink" x="0px" y="0px" viewBox="0 0 1000 1000" enable-background="new 0 0 1000 1000" xml:space="preserve">
<metadata> Svg Vector Icons : http://www.sfont.cn </metadata>
<g><path d="M935.7,564.1c-44.2-20.5-55-77.2-21.7-112.3c10.1-10.7,21.8-18.4,35.3-24.4c30-13.2,43-34.5,40.3-61.2c-4-38.5-14.9-75.4-38.4-107.6c-20.4-27.9-47.9-36.5-80-23.4c-16.1,6.6-32.5,9.7-49.9,9.1c-32.5-1.2-61.3-28.4-64.2-60.4c-1.3-14.4,0.9-27.8,5.8-41.3c4.3-12.1,8.7-24.3,5.9-37.8C764.3,83,749.2,68.8,733,55.6c-27.6-22.5-60.8-31.5-95.2-36.5c-21.3-3.1-39.8,3.4-53.2,20.6c-6.9,8.8-13.1,18.3-18,28.2c-20.5,41.7-80.4,57.8-116.2,23.9C439,80.9,431.6,68,425,54.1c-12.4-25.8-32.6-38.4-60.8-35.1c-40.1,4.7-78.6,15.4-110.8,41.1c-21,16.8-31.9,38-24.7,66c3,11.6,3.4,23.8,4.9,35.8c-0.2,0-0.4,0.1-0.7,0.1c-0.4,6.3-0.7,12.6-1.2,18.9c-2.9,40.5-33,58.3-65.6,60.4c-18.5,1.2-35.6-4.6-52.7-9.4c-26-7.2-45.4,3-61.5,21.4c-21.8,24.7-32,54.6-39.4,86.1c-8.4,35.4,4.6,78.8,45.7,93c14.3,4.9,26.9,18,37.2,30.1c15.2,17.9,16.7,39.3,6.2,60.6c-10.9,22.1-29.2,37-51.7,46.4c-31.2,13-41.2,37.7-39.1,68.2c2.7,37.9,16.2,72.8,39.6,103.3c17.9,23.3,41.9,31.6,70.6,25.2c19.9-4.5,39.6-8.3,60.2-5.7c26.3,3.4,46.3,25.9,47.5,52c0.8,15.8-4.2,29.8-9.7,44.1c-4.3,11.2-7.5,22.6-5.4,35.2c3.1,18.7,13.6,31.9,27.6,43.3c30.9,25.1,67.3,37.8,105.9,44.9c31.1,5.8,66.3-4.5,80.8-41.1c6.2-15.7,16.8-28.2,30.2-38.2c21.1-15.7,44.3-19.5,68.7-8.7c20.8,9.2,34.1,25.9,43.4,46.2c14.1,31,38.3,46.6,68,42.7c36.1-4.7,69.3-16.9,99.7-37.4c26.6-17.9,41.4-51.8,26.3-85.2c-6.6-14.7-7.8-29.8-6.7-45.5c1.7-24.3,23.7-48.3,47.7-52.5c22.6-4,44.3,0,66.1,5.5c31.1,7.8,56.3-2.9,76.9-25.9c22.9-25.6,33.1-56.9,39-89.8c3.6-20.5,1-40-11.9-57.3C964.9,579.1,950.7,571.1,935.7,564.1z M960.7,636.9c-3,32.8-13.3,63-36.1,87.7c-13.2,14.4-29.9,20.2-49.6,14.5c-26.2-7.5-52.5-10.8-79.7-4.7c-34.3,7.7-52.5,31-62.2,62c-7.3,23.2-5.2,46.7,4.4,69.1c5.7,13.3,8.3,26.5-0.1,39.5c-3.1,4.7-7,9.3-11.5,12.7c-25.8,19.7-55.2,31.3-87.3,35.7c-21.3,2.9-33.4-5-43.5-27.3c-11.5-25.5-28.8-46.2-54.5-58c-37.3-17.1-72.3-11.2-103.9,14.4c-15.3,12.4-26.7,27.7-34.6,45.7c-8.4,19.3-20.7,27.6-41.6,25.4c-41-4.2-78.2-18.2-108.8-46.6c-12-11.1-14.1-24.4-7.6-39.4c6.9-15.9,12.6-32,12.4-49.8c-0.6-49.9-32.5-84.1-82.7-85.5c-18.2-0.5-36.8,3.3-54.8,6.8c-21.3,4.1-37.3-0.6-49.2-18.3c-16.6-24.7-28-51.5-31.2-81.3c-0.6-5.9-0.4-12.1,0.4-18c1.7-13.1,9.4-21.6,21.7-26.7c23.2-9.7,42.1-25.1,57.1-45.1c26-34.8,23.2-81.5-7.1-112.8c-13.8-14.2-29.1-26.7-47.8-33.7c-20.3-7.5-26.1-27.5-25-42.2c2.3-32.9,13.5-62.8,34.2-88.8c10.1-12.8,22.4-18.5,39.6-13.4c16,4.7,32.6,8.5,49.1,9.5c28.4,1.7,53.4-8.6,74.4-27.8c14-12.8,19.3-29.8,22.7-47.5c2.1-10.7,2.5-21.7,3.8-33.5c-1.7-12.2-2.4-25.6-5.7-38.3c-3.8-14.3-0.2-25.6,9.9-35.3c18.1-17.2,40.6-26.2,64.1-33c9.7-2.8,19.7-4.7,29.7-6.4c21.9-3.7,32.5,1.7,41.6,21.8c9.4,20.6,22.2,38.4,41,51.5c34.8,24.2,84.1,22.8,117.9-3c14.8-11.3,26.3-24.9,33.8-41.9c1.8-4.2,4.2-8.2,6.8-12c8.5-12.1,19.1-19.4,35.2-17c32.4,4.9,62.7,14.4,87.2,37c21.5,19.8,22.9,26.6,12.9,53.8c-11.6,31.6-9.9,62.2,8.5,90.8c21.9,33.9,54.3,47.5,93.8,43.3c15.6-1.7,30.9-6.9,46-11.7c15.6-5,27.6-3.2,38.7,8.6c18.8,20,27.2,45.1,34.4,70.7c2,7.2,3.1,14.6,4.3,22c3.3,20.1-3.6,31.9-21.8,41.2c-12.3,6.2-24.9,12.7-35.4,21.3c-36.2,29.5-47,74.8-28.5,117.5c9.5,22,26,37.6,47.6,48.2c6.2,3,12.4,6.2,18.2,9.9C955.5,607.7,962.2,620.7,960.7,636.9z M498,287c-119.9,1.5-214.7,95.2-214.4,211.9c0.4,117.8,97.6,213.5,215.8,212.3c120.2-1.2,216.6-96.3,215.6-212.9C714.1,380.3,616.6,285.5,498,287z M499,683.9c-102.9,0.4-187.6-86.5-188-184.7c-0.4-98,83.4-185.9,187.4-184.7c104.2-0.5,188.6,82,188.9,184C687.6,598.2,603.3,683.5,499,683.9z"/></g>
</svg>