<?xml version="1.0" encoding="utf-8"?>
<!-- Svg Vector Icons : http://www.sfont.cn -->
<!DOCTYPE svg PUBLIC "-//W3C//DTD SVG 1.1//EN" "http://www.w3.org/Graphics/SVG/1.1/DTD/svg11.dtd">
<svg version="1.1" xmlns="http://www.w3.org/2000/svg" xmlns:xlink="http://www.w3.org/1999/xlink" x="0px" y="0px" viewBox="0 0 1000 1000" enable-background="new 0 0 1000 1000" xml:space="preserve">
<metadata> Svg Vector Icons : http://www.sfont.cn </metadata>
<g><path d="M779.5,166.3c-0.3-0.3-0.8-0.4-1.1-0.1c-0.3,0.3-0.4,0.8-0.1,1.1l81.5,94.5v509.3c0,25.2-15.4,44.9-35.1,44.9h-13.1c-19.7,0-35.1-19.7-35.1-44.9V349.7c0,0,0,0,0,0c0,0,0,0,0,0c0,0,0-0.1,0-0.1c0-0.1,0-0.1,0-0.2c0,0-0.1-0.1-0.1-0.1c0,0-0.1-0.1-0.1-0.1c0,0-0.1,0-0.1-0.1c-0.1,0-0.1-0.1-0.2-0.1c0,0-0.1,0-0.1,0c-0.1,0-0.1,0-0.2,0c0,0,0,0,0,0c0,0,0,0,0,0l-62.1,3.3c-0.4,0-0.8,0.4-0.8,0.8c0,0.4,0.4,0.8,0.8,0.8c0,0,0,0,0,0l61.2-3.2v420.6c0,26.1,16.1,46.5,36.7,46.5h13.1c20.6,0,36.7-20.4,36.7-46.5V261.2L779.5,166.3z"/><path d="M769.1,262.3h88.2c0.4,0,0.8-0.4,0.8-0.8c0-0.4-0.4-0.8-0.8-0.8h-88.2c-0.4,0-0.8,0.4-0.8,0.8C768.3,262,768.7,262.3,769.1,262.3z"/><path d="M736.4,888.7h-26.1V10H210.5v878.7h-26.1c-26.1,0-45.7,19.6-45.7,45.7v6.5c0,29.4,19.6,49,45.7,49h552.1c26.1,0,45.7-19.6,45.7-45.7v-6.5C785.4,911.6,762.6,888.7,736.4,888.7z M416.3,807.1l39.2-101.3l-58.8,9.8L498,558.8l-39.2,111.1l65.3-9.8L416.3,807.1z M622.1,421.6H302V101.5h320.1V421.6z"/></g>
</svg>