<?xml version="1.0" standalone="no"?><!DOCTYPE svg PUBLIC "-//W3C//DTD SVG 1.1//EN" "http://www.w3.org/Graphics/SVG/1.1/DTD/svg11.dtd"><svg t="1528353489418" class="icon" style="" viewBox="0 0 1024 1024" version="1.1" xmlns="http://www.w3.org/2000/svg" p-id="1990" xmlns:xlink="http://www.w3.org/1999/xlink" width="200" height="200"><defs><style type="text/css"></style></defs><path d="M51.9424 180.1984v709.87776h921.74848V180.1984H51.9424z m884.34688 671.65696H94.81216V222.38208h841.47712v629.47328z m-91.19232-419.24096H482.23744V400.128h362.85952v32.4864z m0 137.0624H482.23744v-32.35328h362.85952v32.35328z m0 137.20064H482.23744v-32.49152h362.85952v32.49152z" p-id="1991"></path><path d="M401.42336 399.44192l-82.048 138.56256h71.66976v24.70912H303.1296v39.04512h87.91552v24.70912H303.1296v81.6384h-32.21504v-81.6384H183.54688v-24.70912h87.36768v-39.04512H183.54688v-24.70912h71.26016L171.93984 399.44192h35.90144l79.72352 135.8336 78.90432-135.8336h34.95424z" p-id="1992"></path></svg>