<?xml version="1.0" standalone="no"?><!DOCTYPE svg PUBLIC "-//W3C//DTD SVG 1.1//EN" "http://www.w3.org/Graphics/SVG/1.1/DTD/svg11.dtd"><svg t="1528442132320" class="icon" style="" viewBox="0 0 1024 1024" version="1.1" xmlns="http://www.w3.org/2000/svg" p-id="1956" xmlns:xlink="http://www.w3.org/1999/xlink" width="200" height="200"><defs><style type="text/css"></style></defs><path d="M24.887832 820.662857a124.342857 124.342857 0 0 0 32.670477 100.937143 133.607619 133.607619 0 0 0 93.622857 25.35619l289.645714-292.571428-119.466667-110.201905z" p-id="1957"></path><path d="M620.758309 592.457143L283.325928 279.893333l-6.826667-88.746666-126.780952-78.506667-36.08381 33.645714-36.083809 34.620953-36.08381 34.620952L122.411642 338.407619l86.308571 7.314286 341.333334 314.026666L477.885928 731.428571l306.224762 292.571429a278.430476 278.430476 0 0 0 199.43619-192.609524l-305.737143-292.571428z" p-id="1958"></path><path d="M601.253547 482.255238l48.761904-51.687619a269.165714 269.165714 0 0 0 278.430477-33.645714A254.537143 254.537143 0 0 0 1000.125928 224.304762l-55.588572-20.967619-107.27619 104.838095-156.525715-149.211428 107.76381-105.325715-21.455238-53.638095a288.670476 288.670476 0 0 0-179.931429 68.754286 222.354286 222.354286 0 0 0-41.447619 263.801904l-53.150476 48.761905z" p-id="1959"></path></svg>