<?xml version="1.0" encoding="utf-8"?>
<!-- Svg Vector Icons : http://www.sfont.cn -->
<!DOCTYPE svg PUBLIC "-//W3C//DTD SVG 1.1//EN" "http://www.w3.org/Graphics/SVG/1.1/DTD/svg11.dtd">
<svg version="1.1" xmlns="http://www.w3.org/2000/svg" xmlns:xlink="http://www.w3.org/1999/xlink" x="0px" y="0px" viewBox="0 0 1000 1000" enable-background="new 0 0 1000 1000" xml:space="preserve">
<metadata> Svg Vector Icons : http://www.sfont.cn </metadata>
<g><path d="M464.3,902.4H184.5v-30.8h264c-6.9-15.6-12.5-31.9-16.9-48.8H184.5v-30.8h240.7c-2.5-15.9-4.2-32.2-4.2-48.8H184.5v-30.8h238c11.9-127.4,98.9-232.9,216.3-272.1V7.3H10v985.4h532.8C511.2,967.9,484.6,937.3,464.3,902.4z M10,175.7h628.7v35.1H10V175.7z M169.1,291.2h302.8v92.3H169.1V291.2z"/><path d="M740.6,493.3c-137.7,0-249.4,111.7-249.4,249.4c0,137.7,111.6,249.4,249.4,249.4c137.7,0,249.4-111.7,249.4-249.4C990,605,878.4,493.3,740.6,493.3L740.6,493.3z M592,829.5l-58.2-96.6h37.9c13.4-101.1,99.9-179.4,204.6-179.4l0.4,47.5c-83.2,0-136.2,52.9-149.3,132.6h37.3L592,829.5z M909.2,723.6c-1.1,113.9-94,206.2-208.1,206.2l1.1-50.8c92.6,0,146.2-60.5,154.8-154.8l-39.3,0.4l64.9-96.6l63,95.6l-40.9-7.3L909.2,723.6z"/></g>
</svg>