<?xml version="1.0" standalone="no"?><!DOCTYPE svg PUBLIC "-//W3C//DTD SVG 1.1//EN" "http://www.w3.org/Graphics/SVG/1.1/DTD/svg11.dtd"><svg t="1528180222481" class="icon" style="" viewBox="0 0 1024 1024" version="1.1" xmlns="http://www.w3.org/2000/svg" p-id="1522" xmlns:xlink="http://www.w3.org/1999/xlink" width="200" height="200"><defs><style type="text/css"></style></defs><path d="M513.4 968.5C263 968.5 60 765.6 60 515.1S263 61.7 513.4 61.7c250.4 0 453.4 203 453.4 453.4S763.9 968.5 513.4 968.5z m0-846.3c-217 0-393 175.9-393 393s175.9 393 393 393c217 0 393-175.9 393-393s-176-393-393-393zM364.4 757l170.4-196.8-202.8-45 296.4-272-145.1 225 211.5 47L364.4 757z" p-id="1523"></path></svg>