<?xml version="1.0" standalone="no"?><!DOCTYPE svg PUBLIC "-//W3C//DTD SVG 1.1//EN" "http://www.w3.org/Graphics/SVG/1.1/DTD/svg11.dtd"><svg t="1528255118363" class="icon" style="" viewBox="0 0 1024 1024" version="1.1" xmlns="http://www.w3.org/2000/svg" p-id="1966" xmlns:xlink="http://www.w3.org/1999/xlink" width="200" height="200"><defs><style type="text/css"></style></defs><path d="M341.333333 426.666667v85.333333H170.666667v85.333333h170.666666v85.333334h85.333334v-85.333334h170.666666v-85.333333H426.666667v-85.333333h170.666666V341.333333H462.208L618.666667 170.666667H512L384 298.666667 256 170.666667H149.333333l156.458667 170.666666H170.666667v85.333334h170.666666zM42.666667 0h725.333333l213.333333 213.333333v810.666667H42.666667V0z m640 426.666667v85.333333h170.666666v-85.333333h-170.666666z m0-170.666667v85.333333h170.666666V256h-170.666666z m0 341.333333v85.333334h170.666666v-85.333334h-170.666666zM170.666667 768v85.333333h682.666666v-85.333333H170.666667z" p-id="1967"></path></svg>