<?xml version="1.0" standalone="no"?><!DOCTYPE svg PUBLIC "-//W3C//DTD SVG 1.1//EN" "http://www.w3.org/Graphics/SVG/1.1/DTD/svg11.dtd"><svg t="1528338627347" class="icon" style="" viewBox="0 0 1029 1024" version="1.1" xmlns="http://www.w3.org/2000/svg" p-id="2050" xmlns:xlink="http://www.w3.org/1999/xlink" width="200.9765625" height="200"><defs><style type="text/css"></style></defs><path d="M154.2144 372.5312m-153.6 0a153.6 153.6 0 1 0 307.2 0 153.6 153.6 0 1 0-307.2 0Z" p-id="2051"></path><path d="M875.9296 651.264m-153.6 0a153.6 153.6 0 1 0 307.2 0 153.6 153.6 0 1 0-307.2 0Z" p-id="2052"></path><path d="M832.3072 90.7264l-9.0112-11.0592c-75.9808-92.7744-214.2208-106.496-306.9952-30.3104L204.3904 305.152c-59.392 48.7424-86.4256 123.0848-78.0288 194.3552L194.56 446.0544c7.168-33.3824 25.1904-64.7168 53.4528-87.8592L559.9232 102.4c66.56-54.6816 165.888-44.8512 220.5696 21.7088 54.6816 66.56 44.8512 165.888-21.7088 220.3648L522.0352 538.624l42.3936 53.8624 237.7728-194.9696C894.976 321.536 908.4928 183.296 832.3072 90.7264z" p-id="2053"></path><path d="M202.9568 933.2736l9.0112 11.0592c76.1856 92.7744 214.2208 106.2912 306.9952 30.3104l311.9104-256c59.392-48.7424 86.4256-123.0848 78.0288-194.56L840.9088 577.536c-7.168 33.3824-25.1904 64.7168-53.4528 87.8592L475.3408 921.6c-66.56 54.6816-165.888 44.8512-220.5696-21.7088-54.6816-66.56-44.8512-165.888 21.7088-220.5696l236.7488-194.1504-42.3936-53.8624-237.7728 195.1744C140.288 702.464 126.7712 840.704 202.9568 933.2736z" p-id="2054"></path></svg>