<?xml version="1.0" standalone="no"?><!DOCTYPE svg PUBLIC "-//W3C//DTD SVG 1.1//EN" "http://www.w3.org/Graphics/SVG/1.1/DTD/svg11.dtd"><svg t="1529486889371" class="icon" style="" viewBox="0 0 1024 1024" version="1.1" xmlns="http://www.w3.org/2000/svg" p-id="3746" xmlns:xlink="http://www.w3.org/1999/xlink" width="200" height="200"><defs><style type="text/css"></style></defs><path d="M385.357 511.982c0 69.943 56.7 126.643 126.643 126.643s126.643-56.7 126.643-126.643S581.943 385.34 512 385.34s-126.643 56.699-126.643 126.642z" p-id="3747"></path><path d="M511.999 298.689c47.361 0 98.007 13.376 150.53 39.755 42.08 21.134 84.687 50.169 126.636 86.299 36.225 31.199 66.369 62.899 87.797 87.262-21.357 24.282-51.387 55.864-87.505 87-41.994 36.202-84.646 65.296-126.771 86.472C610.108 711.909 559.41 725.31 512 725.31c-47.36 0-98.005-13.375-150.528-39.755-42.081-21.134-84.688-50.17-126.639-86.3-36.225-31.198-66.364-62.894-87.791-87.256 21.428-24.363 51.568-56.06 87.791-87.257 41.951-36.13 84.559-65.165 126.639-86.299 52.522-26.379 103.167-39.754 150.527-39.754m0-64c-127.749 0-243.948 76.981-318.932 141.56C126.088 433.933 78.878 492.648 64 512c14.877 19.351 62.086 78.063 129.067 135.75 74.984 64.58 191.184 141.561 318.932 141.561 127.88 0 244.19-77.129 319.245-141.832C898.133 589.817 945.174 531.294 960 512.002c-14.878-19.352-62.091-78.068-129.07-135.753-74.982-64.579-191.18-141.56-318.931-141.56z" p-id="3748"></path></svg>