<?xml version="1.0" standalone="no"?><!DOCTYPE svg PUBLIC "-//W3C//DTD SVG 1.1//EN" "http://www.w3.org/Graphics/SVG/1.1/DTD/svg11.dtd"><svg t="1528360690709" class="icon" style="" viewBox="0 0 1024 1024" version="1.1" xmlns="http://www.w3.org/2000/svg" p-id="3212" xmlns:xlink="http://www.w3.org/1999/xlink" width="200" height="200"><defs><style type="text/css"></style></defs><path d="M717.9 334.2c-162.1 0-294.1 131.9-294.1 294.1s131.9 294.1 294.1 294.1 294.1-132 294.1-294.2-131.9-294-294.1-294z m0 536.6c-133.8 0-242.6-108.8-242.6-242.6s108.8-242.6 242.6-242.6 242.6 108.8 242.6 242.6-108.8 242.6-242.6 242.6z" p-id="3213"></path><path d="M800.2 597l-107.3 3.6 105.6-121.3c9.3-10.7 8.2-27-2.5-36.3-10.7-9.4-27-8.2-36.3 2.5L615.2 611.4c-6.7 7.7-8.2 18.7-3.8 28 4.4 9.2 13.3 15.7 24.1 14.7l111.5-3.7-99.4 127.7c-8.7 11.2-6.7 27.4 4.5 36.1 4.7 3.7 10.3 5.4 15.8 5.4 7.7 0 15.2-3.4 20.3-9.9l133.1-171c6.1-7.9 7.2-18.6 2.6-27.5-4.4-9.1-13.1-15.1-23.7-14.2zM336.9 838.6H37.7c-14.2 0-25.7 11.5-25.7 25.7S23.5 890 37.7 890h299.2c14.2 0 25.7-11.5 25.7-25.7 0.1-14.2-11.5-25.7-25.7-25.7zM345.7 470.1h-308c-14.2 0-25.7 11.5-25.7 25.7s11.5 25.7 25.7 25.7h307.9c14.2 0 25.7-11.5 25.7-25.7s-11.4-25.7-25.6-25.7zM37.7 153.2h656.2c14.2 0 25.7-11.5 25.7-25.7s-11.5-25.7-25.7-25.7H37.7c-14.2 0-25.7 11.5-25.7 25.7s11.5 25.7 25.7 25.7z" p-id="3214"></path></svg>